# xmcd
#
# Track frame offsets: 
#        150
#        11796
#        23356
#        39705
#        50571
#        64830
#        78392
#        92015
#        103977
#        126795
#
# Disc length: 1861 seconds
#
# Revision: 0
# Processed by: cddbd v1.5.1PL2 Copyright (c) Steve Scherf et al.
# Submitted via: ExactAudioCopy v0.95a5
#
DISCID=7e07430a
DTITLE=Lightnin' Slim - That's All Right
DYEAR=2004
DGENRE=Blues
TTITLE0=Bad Luck Blues
TTITLE1=G.I. Blues
TTITLE2=Crazy 'Bout You Baby
TTITLE3=My Babe
TTITLE4=Things I Used To Do
TTITLE5=That's All Right
TTITLE6=Good Morning Heartache
TTITLE7=Rooster Blues
TTITLE8=Voodoo Blues
TTITLE9=Oh Baby
EXTD=
EXTT0=
EXTT1=
EXTT2=
EXTT3=
EXTT4=
EXTT5=
EXTT6=
EXTT7=
EXTT8=
EXTT9=
PLAYORDER=
